<svg width="8" height="8" viewBox="0 0 8 8" fill="none" xmlns="http://www.w3.org/2000/svg">
<path d="M7.82253 0.183533C7.70917 0.0699177 7.55526 0.00606751 7.39477 0.00606751C7.23427 0.00606751 7.08037 0.0699177 6.96701 0.183533L4 3.14448L1.03299 0.177466C0.919632 0.0638502 0.765729 0 0.605233 0C0.444737 0 0.290834 0.0638502 0.177474 0.177466C-0.0591581 0.414099 -0.0591581 0.796352 0.177474 1.03298L3.14448 4L0.177474 6.96701C-0.0591581 7.20364 -0.0591581 7.58589 0.177474 7.82253C0.414107 8.05916 0.796359 8.05916 1.03299 7.82253L4 4.85551L6.96701 7.82253C7.20364 8.05916 7.58589 8.05916 7.82253 7.82253C8.05916 7.58589 8.05916 7.20364 7.82253 6.96701L4.85552 4L7.82253 1.03298C8.05309 0.802419 8.05309 0.414099 7.82253 0.183533Z" fill="#FFFFFE"/>
</svg>
